<svg width="45" height="67" viewBox="0 0 45 67" fill="none" xmlns="http://www.w3.org/2000/svg">
<g clip-path="url(#clip0_111_340)">
<path d="M11.8613 67C17.9589 67 22.9076 61.9974 22.9076 55.8334V44.6667H11.8613C5.76379 44.6667 0.815063 49.6694 0.815063 55.8334C0.815063 61.9974 5.76379 67 11.8613 67Z" fill="#0ACF83"/>
<path d="M0.815063 33.5C0.815063 27.336 5.76379 22.3333 11.8613 22.3333H22.9076V44.6667H11.8613C5.76379 44.6667 0.815063 39.664 0.815063 33.5Z" fill="#A259FF"/>
<path d="M0.815063 11.1667C0.815063 5.00267 5.76379 0 11.8613 0H22.9076V22.3333H11.8613C5.76379 22.3333 0.815063 17.3307 0.815063 11.1667Z" fill="#F24E1E"/>
<path d="M22.9076 0H33.9538C40.0514 0 45.0001 5.00267 45.0001 11.1667C45.0001 17.3307 40.0514 22.3333 33.9538 22.3333H22.9076V0Z" fill="#FF7262"/>
<path d="M45.0001 33.5C45.0001 39.664 40.0514 44.6667 33.9538 44.6667C27.8563 44.6667 22.9076 39.664 22.9076 33.5C22.9076 27.336 27.8563 22.3333 33.9538 22.3333C40.0514 22.3333 45.0001 27.336 45.0001 33.5Z" fill="#1ABCFE"/>
</g>
<defs>
<clipPath id="clip0_111_340">
<rect width="44.185" height="67" fill="white" transform="translate(0.815063)"/>
</clipPath>
</defs>
</svg>
