<svg width="71" height="71" viewBox="0 0 71 71" fill="none" xmlns="http://www.w3.org/2000/svg">
<g clip-path="url(#clip0_111_341)">
<path d="M69.2791 32.3365L38.5875 1.33914C36.8213 -0.44638 33.9544 -0.44638 32.1859 1.33914L25.8128 7.77621L33.8973 15.9419C35.7762 15.3008 37.9304 15.7308 39.4282 17.2437C40.933 18.7659 41.3556 20.9604 40.7054 22.8643L48.4969 30.734C50.3819 30.0781 52.5569 30.5027 54.0625 32.0257C56.1665 34.1501 56.1665 37.5933 54.0625 39.7193C51.9576 41.8452 48.5486 41.8452 46.443 39.7193C44.8603 38.1192 44.4693 35.7712 45.2706 33.8018L38.0044 26.4626L38.0036 45.7762C38.5165 46.0333 39.0009 46.3753 39.4282 46.8053C41.5322 48.9297 41.5322 52.373 39.4282 54.5005C37.3234 56.6257 33.9128 56.6257 31.811 54.5005C29.707 52.373 29.707 48.9297 31.811 46.8053C32.3309 46.281 32.9325 45.8845 33.5742 45.6181V26.1246C32.9325 25.8597 32.3316 25.4655 31.811 24.9373C30.2168 23.3294 29.8335 20.9666 30.6502 18.9895L22.6814 10.939L1.63696 32.1931C-0.13159 33.9802 -0.13159 36.8759 1.63696 38.6614L32.3285 69.6595C34.0956 71.445 36.9616 71.445 38.7309 69.6595L69.2791 38.8055C71.0469 37.0192 71.0469 34.122 69.2791 32.3365Z" fill="#DE4C36"/>
</g>
<defs>
<clipPath id="clip0_111_341">
<rect width="70.2944" height="71" fill="white" transform="translate(0.310303)"/>
</clipPath>
</defs>
</svg>
