<svg width="73" height="71" viewBox="0 0 73 71" fill="none" xmlns="http://www.w3.org/2000/svg">
<g clip-path="url(#clip0_111_334)">
<path d="M0 0H72.3028V71H0V0Z" fill="#F7DF1E"/>
<path d="M19.0111 59.3328L24.5442 56.0446C25.6117 57.9031 26.5827 59.4756 28.9119 59.4756C31.1445 59.4756 32.5521 58.618 32.5521 55.2821V32.5959H39.3468V55.3764C39.3468 62.2871 35.2216 65.4326 29.2032 65.4326C23.7677 65.4326 20.6126 62.6682 19.011 59.3322" fill="black"/>
<path d="M43.0374 58.6178L48.5698 55.4723C50.0262 57.8079 51.919 59.5235 55.2677 59.5235C58.083 59.5235 59.8783 58.1412 59.8783 56.2348C59.8783 53.9471 58.0341 53.1368 54.9278 51.8028L53.2296 51.0874C48.3274 49.0385 45.0755 46.4649 45.0755 41.0316C45.0755 36.0273 48.9581 32.2144 55.0252 32.2144C59.3447 32.2144 62.4509 33.692 64.6832 37.5525L59.3929 40.8884C58.2281 38.8392 56.9665 38.0292 55.0253 38.0292C53.0353 38.0292 51.7734 39.2683 51.7734 40.8884C51.7734 42.8902 53.0353 43.7006 55.9471 44.9398L57.6456 45.6547C63.4212 48.0855 66.6731 50.5635 66.6731 56.1395C66.6731 62.1449 61.8683 65.4331 55.4134 65.4331C49.104 65.4331 45.0271 62.4784 43.0375 58.6178" fill="black"/>
</g>
<defs>
<clipPath id="clip0_111_334">
<rect width="72.3028" height="71" fill="white"/>
</clipPath>
</defs>
</svg>
