<svg width="71" height="71" viewBox="0 0 71 71" fill="none" xmlns="http://www.w3.org/2000/svg">
<g clip-path="url(#clip0_111_336)">
<path d="M32.9512 0.0191064C32.8001 0.0329851 32.3191 0.0815605 31.8862 0.116257C21.902 1.02531 12.5501 6.46576 6.62691 14.8277C3.32864 19.477 1.21912 24.751 0.422041 30.3371C0.140314 32.2871 0.105957 32.8631 0.105957 35.507C0.105957 38.1508 0.140314 38.7268 0.422041 40.6768C2.33229 54.0073 11.7255 65.2074 24.465 69.3571C26.7464 70.0996 29.1513 70.6062 31.8862 70.9115C32.9512 71.0295 37.5551 71.0295 38.6201 70.9115C43.3408 70.3841 47.3399 69.2044 51.2841 67.1712C51.8888 66.8589 52.0056 66.7757 51.9231 66.7063C51.8682 66.6646 49.2914 63.1741 46.1993 58.955L40.5785 51.287L33.5353 40.76C29.6598 34.9726 26.4715 30.24 26.444 30.24C26.4165 30.233 26.389 34.9102 26.3753 40.6213C26.3547 50.6209 26.3478 51.0233 26.2241 51.2593C26.0455 51.5993 25.908 51.7381 25.6194 51.8908C25.3996 52.0018 25.2072 52.0226 24.1696 52.0226H22.9808L22.6647 51.8214C22.4586 51.6895 22.3074 51.516 22.2044 51.3148L22.0601 51.0025L22.0738 37.0891L22.0944 23.1688L22.3074 22.8981C22.4174 22.7524 22.651 22.5651 22.8159 22.4748C23.0976 22.3361 23.2076 22.3222 24.3963 22.3222C25.7981 22.3222 26.0317 22.3777 26.3959 22.7802C26.499 22.8912 30.3126 28.6925 34.8752 35.6804C39.4378 42.6684 45.677 52.21 48.7417 56.894L54.3075 65.4086L54.5892 65.2213C57.0836 63.5836 59.7222 61.2519 61.8111 58.8232C66.2569 53.6672 69.1222 47.3802 70.0842 40.6768C70.366 38.7268 70.4003 38.1508 70.4003 35.507C70.4003 32.8631 70.366 32.2871 70.0842 30.3371C68.174 17.0066 58.7808 5.80653 46.0412 1.65679C43.7943 0.921222 41.403 0.414649 38.7232 0.109318C38.0635 0.0399244 33.5215 -0.0364085 32.9512 0.0191064ZM47.3399 21.4895C47.6698 21.656 47.9377 21.9752 48.0339 22.3083C48.0889 22.4887 48.1026 26.347 48.0889 35.042L48.0683 47.519L45.8901 44.1464L43.705 40.7739V31.7042C43.705 25.8404 43.7324 22.5442 43.7737 22.3846C43.8836 21.996 44.1241 21.6907 44.4539 21.5103C44.7357 21.3646 44.8387 21.3507 45.9175 21.3507C46.9345 21.3507 47.1132 21.3646 47.3399 21.4895Z" fill="#FFFCF2"/>
</g>
<defs>
<clipPath id="clip0_111_336">
<rect width="70.2944" height="71" fill="white" transform="translate(0.105957)"/>
</clipPath>
</defs>
</svg>
