<svg width="71" height="67" viewBox="0 0 71 67" fill="none" xmlns="http://www.w3.org/2000/svg">
<g clip-path="url(#clip0_111_343)">
<path d="M49.0454 46.607C51.6396 46.3386 53.6075 44.1022 53.5181 41.4185C53.4286 38.7348 51.1923 36.5878 48.5087 36.5878H48.3298C45.5568 36.6773 43.4099 39.0031 43.4994 41.7763C43.5888 43.1181 44.1255 44.2811 44.9306 45.0862C41.8892 51.0798 37.2377 55.4632 30.2604 59.1309C25.5194 61.6357 20.5995 62.5302 15.6796 61.904C11.6543 61.3673 8.52344 59.5782 6.55548 56.6261C3.693 52.2427 3.42464 47.5015 5.83986 42.7603C7.53946 39.361 10.223 36.8562 11.9226 35.6038C11.5648 34.4408 11.0281 32.4728 10.7598 31.0415C-2.21087 40.4344 -0.869079 53.1373 3.06683 59.1309C6.01877 63.6037 12.0121 66.3769 18.6316 66.3769C20.4206 66.3769 22.2097 66.198 23.9987 65.7507C35.4487 63.5143 44.1255 56.7156 49.0454 46.607ZM64.7891 35.5143C57.9907 27.5527 47.972 23.1693 36.5221 23.1693H35.0908C34.2858 21.5591 32.5862 20.4856 30.7077 20.4856H30.5288C27.7557 20.575 25.6089 22.9009 25.6983 25.6741C25.7878 28.3578 28.0241 30.5047 30.7077 30.5047H30.8866C32.8545 30.4153 34.5541 29.1629 35.2697 27.4632H36.8799C43.6783 27.4632 50.1189 29.4313 55.9333 33.2779C60.4059 36.23 63.6262 40.0766 65.4153 44.7284C66.9359 48.4855 66.8465 52.1533 65.2363 55.2842C62.7317 60.0255 58.5274 62.6197 52.9813 62.6197C49.4032 62.6197 46.0041 61.5462 44.215 60.7411C43.231 61.6357 41.442 63.067 40.1896 63.9616C44.0361 65.7507 47.972 66.7347 51.729 66.7347C60.3165 66.7347 66.6676 61.9935 69.0828 57.2523C71.6769 52.0638 71.498 43.1181 64.7891 35.5143ZM19.3472 48.1277C19.4366 50.8114 21.673 52.9584 24.3565 52.9584H24.5354C27.3085 52.8689 29.4553 50.543 29.3659 47.7699C29.2764 45.0862 27.0401 42.9392 24.3565 42.9392H24.1776C23.9987 42.9392 23.7304 42.9392 23.5515 43.0287C19.8839 36.9456 18.3632 30.3258 18.8999 23.1693C19.2577 17.8019 21.0468 13.1501 24.1776 9.3035C26.7718 5.9936 31.7811 4.38338 35.1803 4.29392C44.6623 4.11501 48.6876 15.9233 48.956 20.6645C50.1189 20.9329 52.0868 21.5591 53.4286 22.0064C52.3552 7.51436 43.4099 0 34.8225 0C26.7718 0 19.3472 5.81469 16.3953 14.4025C12.2804 25.853 14.964 36.8562 19.9734 45.5335C19.5261 46.1597 19.2577 47.1437 19.3472 48.1277Z" fill="#A076E4"/>
</g>
<defs>
<clipPath id="clip0_111_343">
<rect width="70.2944" height="67" fill="white" transform="translate(0.338867)"/>
</clipPath>
</defs>
</svg>
