<svg width="83" height="49" viewBox="0 0 83 49" fill="none" xmlns="http://www.w3.org/2000/svg">
<g clip-path="url(#clip0_111_338)">
<path d="M41.3255 0C30.3462 0 23.4841 5.4303 20.7393 16.2909C24.8565 10.8606 29.66 8.82424 35.1496 10.1818C38.2818 10.9564 40.5205 13.2041 42.9985 15.6922C47.0352 19.7453 51.7072 24.4364 61.9117 24.4364C72.891 24.4364 79.7531 19.0061 82.4979 8.14545C78.3807 13.5758 73.5772 15.6121 68.0876 14.2545C64.9554 13.48 62.7167 11.2323 60.2387 8.74415C56.202 4.69103 51.53 0 41.3255 0ZM20.7393 24.4364C9.75997 24.4364 2.8979 29.8667 0.153076 40.7273C4.27032 35.297 9.07376 33.2606 14.5634 34.6182C17.6956 35.3928 19.9343 37.6404 22.4123 40.1286C26.449 44.1817 31.121 48.8727 41.3255 48.8727C52.3048 48.8727 59.1669 43.4424 61.9117 32.5818C57.7945 38.0121 52.991 40.0485 47.5014 38.6909C44.3692 37.9163 42.1305 35.6686 39.6525 33.1805C35.6158 29.1274 30.9438 24.4364 20.7393 24.4364Z" fill="url(#paint0_linear_111_338)"/>
</g>
<defs>
<linearGradient id="paint0_linear_111_338" x1="-2.13428" y1="15.6393" x2="68.5961" y2="56.8665" gradientUnits="userSpaceOnUse">
<stop stop-color="#2298BD"/>
<stop offset="1" stop-color="#0ED7B5"/>
</linearGradient>
<clipPath id="clip0_111_338">
<rect width="82.3448" height="49" fill="white" transform="translate(0.153076)"/>
</clipPath>
</defs>
</svg>
