<svg width="72" height="71" viewBox="0 0 72 71" fill="none" xmlns="http://www.w3.org/2000/svg">
<g clip-path="url(#clip0_111_337)">
<path d="M0.655847 0.982738C0.507414 0.39128 1.06474 -0.13674 1.65954 0.0318155L18.991 4.94316C19.1462 4.94261 19.2996 4.98612 19.4307 5.06783L53.6121 14.7541C53.7538 14.757 53.8934 14.7965 54.015 14.8681L71.3477 19.78C71.9432 19.9488 72.1295 20.689 71.6829 21.1118L19.3788 70.6332C18.9323 71.0559 18.1884 70.8443 18.0399 70.2524L9.36362 35.6806C9.35201 35.6451 9.3429 35.6088 9.33638 35.5721L0.655847 0.982738ZM15.5021 53.5365L19.2675 68.5405L30.6068 57.8041L15.5021 53.5365ZM27.1821 41.6709L16.2037 52.0867L30.8288 56.2194L27.1821 41.6709ZM28.8118 41.5597L32.4469 56.062L43.3954 45.696L28.8118 41.5597ZM11.2462 36.5776L14.8972 51.1266L25.8627 40.7233L11.2462 36.5776ZM40.1288 29.374L28.9742 39.9571L43.8392 44.1734L40.1288 29.374ZM41.6918 28.9976L45.4021 43.7963L56.5873 33.2063L41.6918 28.9976ZM22.8698 24.4632L11.6912 35.0556L26.5834 39.2792L22.8698 24.4632ZM24.4269 24.0637L28.0736 38.6117L39.052 28.1959L24.4269 24.0637ZM6.86576 19.1231L10.5772 33.9128L21.7477 23.328L6.86576 19.1231ZM53.1518 17.0698L42.1733 27.4856L56.7985 31.6182L53.1518 17.0698ZM54.7207 16.7163L58.4194 31.4716L69.5619 20.9221L54.7207 16.7163ZM35.8212 12.1915L24.892 22.5473L39.4484 26.6601L35.8212 12.1915ZM37.381 11.8024L41.0328 26.3681L52.0145 15.9492L37.381 11.8024ZM18.5502 7.25901L7.57182 17.6748L22.197 21.8075L18.5502 7.25901ZM20.1206 6.91112L23.7582 21.4228L34.7101 11.0456L20.1206 6.91112ZM2.55168 1.93253L6.26223 16.7179L17.4088 6.14273L2.55168 1.93253Z" fill="#FFFCF2"/>
</g>
<defs>
<clipPath id="clip0_111_337">
<rect width="71.2986" height="71" fill="white" transform="translate(0.631592)"/>
</clipPath>
</defs>
</svg>
