<svg width="80" height="71" viewBox="0 0 80 71" fill="none" xmlns="http://www.w3.org/2000/svg">
<g clip-path="url(#clip0_111_335)">
<path d="M65.7653 22.9889C64.9424 22.7043 64.0896 22.435 63.2115 22.1803C63.3559 21.5884 63.4883 21.0042 63.6061 20.4299C65.5393 11.0003 64.2753 3.40372 59.9592 0.902601C55.8206 -1.49564 49.0522 1.00491 42.2165 6.98284C41.5592 7.55768 40.9 8.16628 40.2412 8.80412C39.8021 8.38211 39.3638 7.97429 38.9266 7.58421C31.7626 1.19222 24.5818 -1.50146 20.2699 1.0069C16.1353 3.41209 14.9109 10.5536 16.651 19.4901C16.819 20.3533 17.0155 21.2348 17.2376 22.131C16.2213 22.4209 15.2402 22.73 14.3014 23.0588C5.90234 26.0013 0.53833 30.613 0.53833 35.3966C0.53833 40.3371 6.2966 45.2925 15.0449 48.2972C15.7352 48.5344 16.4516 48.7586 17.1898 48.9714C16.9502 49.9407 16.7418 50.8906 16.5668 51.8171C14.9076 60.5985 16.2034 67.5713 20.327 69.9613C24.5863 72.4295 31.7346 69.8925 38.6953 63.7783C39.2455 63.295 39.7976 62.7825 40.3507 62.2452C41.0677 62.939 41.7835 63.5955 42.4954 64.2114C49.2377 70.0416 55.8967 72.3959 60.0165 69.9992C64.2716 67.5239 65.6545 60.0334 63.8591 50.9201C63.722 50.2241 63.5625 49.513 63.3833 48.7894C63.8853 48.6402 64.3781 48.4863 64.8586 48.3262C73.9533 45.2982 79.8705 40.4031 79.8705 35.3966C79.8705 30.5957 74.3335 25.9529 65.7653 22.9889ZM63.7928 45.0936C63.359 45.2379 62.9139 45.3774 62.4603 45.5126C61.4563 42.3186 60.1012 38.9222 58.443 35.4132C60.0254 31.9878 61.3281 28.6348 62.304 25.4615C63.1155 25.6975 63.9032 25.9464 64.6622 26.2091C72.0034 28.7486 76.4815 32.5034 76.4815 35.3966C76.4815 38.4784 71.6453 42.479 63.7928 45.0936ZM60.5345 51.5815C61.3284 55.6113 61.4418 59.2547 60.9159 62.1029C60.4434 64.6622 59.4932 66.3685 58.3183 67.0519C55.8182 68.5061 50.4717 66.6159 44.7057 61.6298C44.0447 61.0582 43.3788 60.4479 42.7109 59.802C44.9463 57.3453 47.1804 54.4893 49.3608 51.3174C53.1959 50.9755 56.8192 50.4164 60.1051 49.6531C60.2669 50.3091 60.4106 50.9525 60.5345 51.5815ZM27.5845 66.8006C25.1418 67.6675 23.1964 67.6923 22.0204 67.0109C19.518 65.5606 18.4777 59.9621 19.8967 52.4522C20.0592 51.5921 20.2527 50.7087 20.4757 49.8056C23.7255 50.5278 27.3222 51.0474 31.1666 51.3606C33.3617 54.4643 35.6603 57.3172 37.9767 59.8152C37.4706 60.3062 36.9665 60.7736 36.4652 61.2141C33.3872 63.9177 30.3028 65.8359 27.5845 66.8006ZM16.1409 45.0747C12.2726 43.7461 9.07802 42.0193 6.88827 40.1351C4.92065 38.4418 3.92724 36.7607 3.92724 35.3966C3.92724 32.4938 8.23401 28.7912 15.417 26.2746C16.2885 25.9692 17.2009 25.6815 18.1477 25.4112C19.1404 28.6561 20.4426 32.0488 22.0142 35.4795C20.4223 38.9611 19.1016 42.4079 18.0991 45.6908C17.4241 45.4959 16.7702 45.2907 16.1409 45.0747ZM19.9769 18.8361C18.486 11.1795 19.4762 5.40365 21.9678 3.95429C24.6219 2.41028 30.4907 4.61171 36.6763 10.1309C37.0717 10.4836 37.4686 10.8529 37.8667 11.2349C35.5617 13.7219 33.2841 16.5534 31.1085 19.6388C27.3775 19.9864 23.806 20.5446 20.5223 21.2921C20.3158 20.4576 20.1329 19.6377 19.9769 18.8361ZM54.1972 27.3272C53.4123 25.9647 52.6064 24.6344 51.7848 23.3404C54.316 23.662 56.7411 24.0888 59.0186 24.6111C58.3348 26.8131 57.4826 29.1154 56.4795 31.4757C55.7599 30.1028 54.9988 28.7185 54.1972 27.3272ZM40.2423 13.6687C41.8055 15.3705 43.3709 17.2705 44.9107 19.3321C43.3591 19.2584 41.7882 19.2201 40.2044 19.2201C38.6356 19.2201 37.0763 19.2576 35.5343 19.3299C37.0756 17.2876 38.6547 15.3901 40.2423 13.6687ZM26.1979 27.3508C25.4138 28.7171 24.6668 30.0938 23.9585 31.4731C22.9716 29.1211 22.1273 26.8083 21.4376 24.5751C23.701 24.0661 26.1148 23.6499 28.6299 23.3345C27.7967 24.6404 26.9842 25.9805 26.1979 27.3505V27.3508ZM28.7023 47.7017C26.1037 47.4104 23.6537 47.0156 21.3909 46.5207C22.0915 44.2476 22.9545 41.8854 23.9623 39.4827C24.6724 40.861 25.4224 42.2383 26.2113 43.6076H26.2115C27.0151 45.0026 27.8477 46.3691 28.7023 47.7017ZM40.336 57.3646C38.7298 55.6231 37.1276 53.6967 35.5629 51.6245C37.0819 51.6844 38.6305 51.715 40.2044 51.715C41.8214 51.715 43.4199 51.6784 44.9933 51.608C43.4485 53.7175 41.8887 55.6469 40.336 57.3646ZM56.5118 39.3603C57.5722 41.7889 58.466 44.1387 59.1758 46.3731C56.8756 46.9004 54.3921 47.3251 51.7755 47.6407C52.599 46.3292 53.412 44.9761 54.2108 43.5842C55.0189 42.176 55.7863 40.7657 56.5118 39.3603ZM51.2752 41.8828C50.0351 44.0435 48.7619 46.1062 47.4694 48.0532C45.1153 48.2223 42.6832 48.3094 40.2044 48.3094C37.7357 48.3094 35.3342 48.2324 33.0218 48.0816C31.6772 46.109 30.3763 44.0403 29.1441 41.9014H29.1444C27.9155 39.7684 26.7844 37.6173 25.7595 35.4783C26.7841 33.3344 27.9122 31.1809 29.1341 29.0517L29.1338 29.0522C30.359 26.9173 31.6484 24.8586 32.9805 22.8984C35.3399 22.7192 37.7592 22.6257 40.2043 22.6257H40.2044C42.6605 22.6257 45.083 22.7199 47.4416 22.9007C48.7534 24.8465 50.0341 26.8985 51.264 29.0337C52.5079 31.1928 53.6506 33.332 54.684 35.43C53.6537 37.564 52.5136 39.7247 51.2752 41.8828ZM58.2664 3.85297C60.923 5.39244 61.956 11.6011 60.2869 19.7426C60.1805 20.2621 60.0606 20.7912 59.9304 21.3274C56.6391 20.5643 53.065 19.9964 49.3231 19.6437C47.1432 16.5243 44.8843 13.6884 42.6169 11.2333C43.2265 10.644 43.8352 10.0821 44.4415 9.55179C50.2983 4.42993 55.7723 2.40773 58.2664 3.85297ZM40.2044 28.278C44.1168 28.278 47.2885 31.465 47.2885 35.3966C47.2885 39.3281 44.1168 42.5153 40.2044 42.5153C36.2921 42.5153 33.1203 39.3281 33.1203 35.3966C33.1203 31.465 36.2921 28.278 40.2044 28.278Z" fill="#00D8FF"/>
</g>
<defs>
<clipPath id="clip0_111_335">
<rect width="79.3322" height="71" fill="white" transform="translate(0.53833)"/>
</clipPath>
</defs>
</svg>
