<svg width="86" height="64" viewBox="0 0 86 64" fill="none" xmlns="http://www.w3.org/2000/svg">
<g clip-path="url(#clip0_111_339)">
<path d="M73.334 36.8379C70.3993 36.8534 67.8488 37.5684 65.713 38.6254C64.9294 37.0555 64.1458 35.6566 64.0075 34.6307C63.8539 33.4339 63.6695 32.7033 63.8539 31.2734C64.0383 29.8434 64.868 27.8072 64.8526 27.6517C64.8372 27.4963 64.6682 26.7658 62.9781 26.7502C61.2879 26.7347 59.8283 27.0766 59.6593 27.5274C59.4903 27.9781 59.1676 29.004 58.9525 30.061C58.6605 31.6153 55.5722 37.1643 53.8052 40.0709C53.2367 38.9363 52.7451 37.9415 52.6375 37.1488C52.4839 35.9519 52.2995 35.2214 52.4839 33.7914C52.6682 32.3614 53.4979 30.3252 53.4826 30.1698C53.4672 30.0143 53.2982 29.2838 51.6081 29.2682C49.9179 29.2527 48.4583 29.5947 48.2893 30.0454C48.1202 30.4962 47.9359 31.5531 47.5825 32.579C47.2291 33.6049 43.1266 42.8687 42.0511 45.2624C41.498 46.4903 41.0217 47.4696 40.6836 48.138C40.6836 48.138 40.6683 48.1846 40.6222 48.2623C40.3302 48.8374 40.1612 49.1483 40.1612 49.1483C40.1612 49.1483 40.1612 49.1483 40.1612 49.1638C39.9307 49.5835 39.6849 49.9721 39.562 49.9721C39.4698 49.9721 39.3008 48.853 39.5927 47.3297C40.2073 44.1122 41.667 39.1072 41.6516 38.9363C41.6516 38.843 41.9282 37.9726 40.699 37.5218C39.5005 37.071 39.0703 37.8171 38.9628 37.8171C38.8552 37.8171 38.7784 38.0814 38.7784 38.0814C38.7784 38.0814 40.1151 32.4547 36.2278 32.4547C33.8002 32.4547 30.4506 35.1437 28.7912 37.5684C27.7464 38.1435 25.5185 39.3715 23.1369 40.6927C22.2304 41.2056 21.2931 41.7185 20.4173 42.2004C20.3559 42.1382 20.2944 42.0605 20.233 41.9983C15.5313 36.9156 6.83478 33.3251 7.20354 26.5015C7.34182 24.0146 8.18689 17.4863 23.9052 9.5592C36.8424 3.10868 47.1369 4.89618 48.9192 8.85975C51.4698 14.5176 43.4032 25.0249 30.0358 26.5482C24.9346 27.1233 22.2611 25.1337 21.5851 24.3876C20.8783 23.6104 20.7707 23.5638 20.5095 23.7193C20.0793 23.9524 20.3559 24.6519 20.5095 25.056C20.909 26.1129 22.5531 27.9781 25.3341 28.8952C27.7925 29.7035 33.7694 30.1542 41.0063 27.3253C49.1036 24.1545 55.4339 15.3414 53.5748 7.95823C51.7156 0.466305 39.4237 -2.0051 27.7925 2.17608C20.8783 4.66303 13.3802 8.57997 7.98714 13.6782C1.57999 19.7401 0.565903 25.0094 0.980755 27.2165C2.47115 35.0504 13.1497 40.1486 17.4212 43.9257C17.2061 44.05 17.0063 44.1588 16.8373 44.2521C14.7016 45.3246 6.55821 49.6301 4.53004 54.1843C2.22531 59.3448 4.8988 63.0441 6.66576 63.5415C12.151 65.0803 17.7899 62.3135 20.8168 57.7438C23.8437 53.174 23.475 47.2364 22.0767 44.5163C22.0614 44.4853 22.046 44.4542 22.0153 44.4231C22.5684 44.0967 23.1369 43.7547 23.6901 43.4283C24.781 42.7755 25.8565 42.1693 26.7784 41.6719C26.256 43.1174 25.8719 44.8428 25.6875 47.3297C25.457 50.2519 26.6401 54.0444 28.192 55.5366C28.8834 56.1894 29.6977 56.205 30.2201 56.205C32.0332 56.205 32.8475 54.6817 33.7541 52.8787C34.8603 50.6715 35.8591 48.1069 35.8591 48.1069C35.8591 48.1069 34.6145 55.0392 37.9948 55.0392C39.224 55.0392 40.4685 53.4227 41.0217 52.5989V52.6145C41.0217 52.6145 41.0524 52.5678 41.1138 52.459C41.2368 52.257 41.3136 52.1326 41.3136 52.1326V52.1015C41.8053 51.2311 42.9115 49.2571 44.5556 45.9774C46.6759 41.7496 48.7195 36.4649 48.7195 36.4649C48.7195 36.4649 48.9038 37.755 49.5338 39.8999C49.9026 41.159 50.6708 42.5423 51.2854 43.8791C50.7937 44.5785 50.4864 44.9671 50.4864 44.9671C50.4864 44.9671 50.4864 44.9671 50.5018 44.9826C50.1023 45.5111 49.6721 46.0862 49.1958 46.6458C47.521 48.6664 45.5236 50.9824 45.247 51.6508C44.9243 52.4435 45.0012 53.0186 45.6158 53.4849C46.0613 53.8268 46.8603 53.8735 47.6747 53.8268C49.1804 53.718 50.2406 53.345 50.763 53.1118C51.5773 52.8165 52.53 52.3658 53.4211 51.6974C55.0652 50.4695 56.0639 48.7131 55.9717 46.3971C55.9256 45.1225 55.5107 43.848 55.0037 42.6511C55.1574 42.4335 55.2956 42.2159 55.4493 41.9983C58.046 38.1591 60.0588 33.9468 60.0588 33.9468C60.0588 33.9468 60.2431 35.2369 60.8731 37.3819C61.1804 38.47 61.8104 39.6513 62.3635 40.8015C59.9205 42.8066 58.4147 45.1381 57.8769 46.6613C56.909 49.4902 57.6618 50.7648 59.0908 51.0601C59.7361 51.2 60.658 50.8891 61.334 50.5938C62.1945 50.314 63.2086 49.8322 64.1765 49.1172C65.8206 47.8893 67.4032 46.1795 67.311 43.8635C67.2649 42.8066 66.9883 41.7652 66.6042 40.7548C68.6785 39.8844 71.3519 39.4026 74.763 39.8067C82.0766 40.6771 83.5209 45.2935 83.2444 47.2364C82.9678 49.1794 81.4313 50.2363 80.9243 50.5627C80.4172 50.8891 80.2482 50.9979 80.2943 51.2311C80.3558 51.573 80.6016 51.5575 81.0318 51.4953C81.6311 51.3865 84.873 49.9254 85.0113 46.3505C85.2418 41.7807 80.9396 36.7913 73.334 36.8379ZM16.9141 56.0806C14.4865 58.7541 11.1062 59.7644 9.64655 58.9095C8.07933 57.9925 8.69393 54.0445 11.6747 51.2156C13.4878 49.4902 15.8232 47.8893 17.3751 46.91C17.7285 46.6924 18.2509 46.3815 18.8809 45.993C18.9884 45.9308 19.0499 45.8997 19.0499 45.8997C19.1728 45.822 19.2957 45.7443 19.4186 45.6665C20.5095 49.7078 19.4647 53.2673 16.9141 56.0806ZM34.5838 43.9257C33.7387 46.0085 31.9717 51.3399 30.8962 51.0446C29.9743 50.7959 29.4058 46.7546 30.7118 42.7599C31.3725 40.7548 32.7707 38.3611 33.585 37.4285C34.9064 35.9364 36.3661 35.439 36.7195 36.0452C37.1651 36.8379 35.1062 42.62 34.5838 43.9257ZM49.165 50.9824C48.8117 51.1689 48.4736 51.2933 48.32 51.2C48.2124 51.1378 48.4736 50.8891 48.4736 50.8891C48.4736 50.8891 50.3021 48.8996 51.0242 47.9981C51.4391 47.4696 51.9307 46.8479 52.4531 46.1484V46.3505C52.4531 48.7286 50.1791 50.3296 49.165 50.9824ZM60.4122 48.3867C60.1509 48.2001 60.197 47.5784 61.0728 45.6355C61.4109 44.8738 62.2098 43.5993 63.5773 42.3713C63.731 42.8687 63.8385 43.3506 63.8232 43.8013C63.8078 46.8012 61.6874 47.9203 60.4122 48.3867Z" fill="#CD6799"/>
</g>
<defs>
<clipPath id="clip0_111_339">
<rect width="84.3532" height="64" fill="white" transform="translate(0.750244)"/>
</clipPath>
</defs>
</svg>
