<svg width="200" height="200" viewBox="0 0 200 200" fill="none" xmlns="http://www.w3.org/2000/svg">
<path d="M119.16 24.9855L123.992 7.4906L118.555 5.99126L119.313 3.24412L133.253 7.08816L132.494 9.8353L127.057 8.33597L122.225 25.8309L119.16 24.9855Z" fill="#FFFCF2"/>
<path d="M127.608 27.3492L136.986 7.89117L139.851 9.27003L135.97 17.3235C136.652 16.8303 137.493 16.5583 138.495 16.5075C139.505 16.4386 140.505 16.6427 141.497 17.1197C143.155 17.9175 144.173 19.029 144.552 20.4542C144.939 21.8614 144.682 23.5018 143.778 25.3755L139.962 33.2939L137.097 31.915L140.718 24.4021C141.256 23.285 141.402 22.2902 141.157 21.4174C140.912 20.5447 140.311 19.8785 139.356 19.4189C138.365 18.9419 137.357 18.8677 136.333 19.1961C135.327 19.5331 134.52 20.3323 133.912 21.5934L130.474 28.728L127.608 27.3492Z" fill="#FFFCF2"/>
<path d="M144.409 36.943C143.454 36.2497 142.77 35.5064 142.358 34.7129C141.958 33.9032 141.796 33.1059 141.872 32.3209C141.96 31.5198 142.245 30.7876 142.727 30.1244C143.586 28.9435 144.685 28.3329 146.025 28.2924C147.381 28.2637 148.853 28.825 150.439 29.9765L153.546 32.2324L153.74 31.9655C155.058 30.1538 154.875 28.637 153.191 27.415C152.496 26.9098 151.793 26.6346 151.084 26.5894C150.403 26.5399 149.74 26.7879 149.096 27.3337L146.523 25.4655C147.57 24.2978 148.835 23.6965 150.32 23.6619C151.832 23.6227 153.324 24.1378 154.797 25.207C156.577 26.4995 157.555 27.8762 157.729 29.3371C157.903 30.7981 157.431 32.297 156.314 33.8337L150.933 41.2341L148.748 39.6479L149.817 37.7181L149.647 37.5947C148.879 37.9024 148.082 38.0645 147.253 38.0812C146.425 38.0978 145.477 37.7184 144.409 36.943ZM146.465 35.136C147.517 35.8997 148.531 36.1541 149.508 35.8992C150.512 35.6399 151.397 35.0346 152.163 34.0831L149.347 32.0387C148.425 31.3689 147.658 31.0467 147.046 31.0721C146.462 31.093 145.976 31.3704 145.588 31.9042C145.199 32.438 145.08 32.9937 145.228 33.5713C145.405 34.1444 145.817 34.666 146.465 35.136Z" fill="#FFFCF2"/>
<path d="M151.609 41.7969L162.368 31.5182L164.276 33.5124L162.858 35.241L162.962 35.3493C163.759 35.141 164.628 35.1676 165.571 35.4291C166.513 35.6906 167.364 36.2188 168.125 37.0136C169.383 38.3285 169.933 39.6983 169.773 41.1229C169.614 42.5475 168.761 43.9989 167.213 45.4771L160.901 51.5076L158.702 49.21L164.733 43.4489C165.629 42.5924 166.144 41.7414 166.276 40.8959C166.408 40.0505 166.087 39.2232 165.313 38.4139C164.552 37.6192 163.649 37.21 162.602 37.1865C161.569 37.1775 160.547 37.6565 159.534 38.6236L153.808 44.0945L151.609 41.7969Z" fill="#FFFCF2"/>
<path d="M161.568 52.4436L179.599 40.5508L181.352 43.2041L170.533 50.3398L178.884 51.66L181.083 54.9892L172.15 53.4416L171.95 53.5738L169.108 63.8578L166.975 60.6288L169.706 50.8849L163.32 55.0969L161.568 52.4436Z" fill="#FFFCF2"/>
<path d="M171.232 70.0191C170.461 68.217 170.271 66.6021 170.661 65.1742C171.051 63.7463 171.913 62.6604 173.248 61.9163L174.534 64.9227C173.937 65.308 173.551 65.8537 173.374 66.5597C173.206 67.2842 173.314 68.0969 173.7 68.998C174.069 69.8622 174.527 70.4496 175.073 70.76C175.646 71.081 176.171 71.1394 176.649 70.9352C177.348 70.6367 177.704 70.1474 177.718 69.4674C177.739 68.8058 177.583 67.905 177.247 66.7651C176.956 65.7802 176.802 64.8348 176.785 63.929C176.793 63.0337 176.979 62.2475 177.342 61.5705C177.723 60.8857 178.337 60.3626 179.183 60.0013C180.379 59.4907 181.545 59.5472 182.682 60.1708C183.819 60.7944 184.745 61.9428 185.461 63.6162C186.176 65.2895 186.354 66.7469 185.993 67.9884C185.632 69.2299 184.83 70.203 183.587 70.9079L182.384 68.0944C182.904 67.7852 183.215 67.3156 183.315 66.6856C183.434 66.0477 183.336 65.361 183.021 64.6255C182.699 63.8716 182.296 63.3368 181.813 63.0212C181.348 62.6977 180.886 62.6341 180.426 62.8305C179.433 63.2547 179.282 64.5804 179.974 66.8077C180.296 67.8662 180.488 68.8497 180.551 69.7582C180.631 70.6589 180.485 71.4608 180.111 72.1641C179.756 72.8594 179.073 73.4231 178.061 73.8552C177.241 74.227 176.394 74.3061 175.52 74.0924C174.653 73.8971 173.842 73.4498 173.086 72.7505C172.338 72.0696 171.72 71.1591 171.232 70.0191Z" fill="#FFFCF2"/>
<path d="M170.793 90.1965L173.58 90.0714L173.689 92.4989C173.72 93.1982 173.893 93.691 174.206 93.9772C174.5 94.2844 174.987 94.4227 175.666 94.3922L189.752 93.7601L189.582 89.9839L192.279 89.8629L192.449 93.6391L194.517 93.5463C196.175 93.4719 197.383 93.8281 198.139 94.615C198.895 95.4019 199.307 96.5546 199.375 98.073L199.538 101.699L196.751 101.824L196.606 98.5877C196.574 97.8884 196.412 97.3952 196.119 97.1081C195.825 96.8209 195.329 96.693 194.63 96.7244L192.592 96.8159L192.825 102.001L190.128 102.122L189.895 96.9369L175.779 97.5703C174.121 97.6448 172.913 97.2885 172.157 96.5016C171.401 95.7147 170.988 94.5521 170.919 93.0136L170.793 90.1965Z" fill="#FFFCF2"/>
<path d="M176.714 110.694C176.905 109.286 177.392 108.071 178.177 107.047C178.962 106.023 179.972 105.272 181.207 104.793C182.462 104.317 183.873 104.185 185.439 104.397C187.004 104.609 188.319 105.11 189.383 105.9C190.466 106.692 191.25 107.686 191.733 108.882C192.217 110.077 192.362 111.389 192.169 112.816C191.975 114.243 191.488 115.458 190.706 116.462C189.921 117.486 188.902 118.226 187.65 118.683C186.414 119.161 185.014 119.295 183.448 119.083C181.882 118.871 180.558 118.368 179.474 117.576C178.411 116.786 177.637 115.793 177.153 114.598C176.667 113.422 176.52 112.121 176.714 110.694ZM179.716 111.1C179.614 111.853 179.689 112.57 179.94 113.249C180.191 113.929 180.637 114.504 181.28 114.975C181.94 115.468 182.805 115.787 183.875 115.931C184.965 116.079 185.884 116.001 186.631 115.699C187.376 115.416 187.96 114.981 188.383 114.392C188.803 113.823 189.064 113.162 189.166 112.409C189.268 111.656 189.194 110.94 188.943 110.26C188.692 109.58 188.246 108.995 187.607 108.505C186.964 108.034 186.098 107.725 185.007 107.578C183.382 107.358 182.128 107.602 181.245 108.31C180.379 109.04 179.87 109.97 179.716 111.1Z" fill="#FFFCF2"/>
<path d="M176.034 117.962L178.659 118.814L177.537 122.266L185.498 124.851C186.125 125.055 186.538 124.852 186.736 124.244L187.469 121.99L190.094 122.842L188.99 126.237C188.737 127.017 188.301 127.58 187.684 127.926C187.085 128.279 186.387 128.325 185.588 128.066L185.245 127.955L185.199 128.097C186.196 128.652 186.85 129.359 187.16 130.216C187.483 131.099 187.428 132.206 186.995 133.538L186.28 135.734L183.085 134.697L184.086 131.616C184.451 130.493 184.343 129.501 183.761 128.64C183.179 127.778 182.346 127.171 181.261 126.819L176.553 125.29L175.125 129.684L172.499 128.832L176.034 117.962Z" fill="#FFFCF2"/>
<path d="M161.996 147.257L177.657 151.489L175.411 154.303L163.426 150.852L169.441 161.783L167.214 164.573L159.619 150.235L161.996 147.257Z" fill="#FFFCF2"/>
<path d="M162.682 171.545C163.209 171.084 163.798 170.862 164.449 170.877C165.099 170.921 165.641 171.192 166.075 171.688C166.51 172.185 166.698 172.751 166.641 173.384C166.569 174.031 166.27 174.585 165.742 175.045C165.2 175.519 164.611 175.741 163.975 175.712C163.323 175.697 162.781 175.441 162.346 174.944C161.912 174.447 161.724 173.867 161.783 173.206C161.84 172.572 162.139 172.018 162.682 171.545ZM155.884 154.7L157.7 156.778L154.175 159.856L159.684 166.157C160.119 166.654 160.577 166.692 161.059 166.271L163.545 164.101L165.362 166.178L162.446 168.723C161.512 169.539 160.643 169.912 159.84 169.844C159.034 169.804 158.223 169.317 157.407 168.384L151.779 161.947L148.254 165.025L146.437 162.947L155.884 154.7Z" fill="#FFFCF2"/>
<path d="M139.591 166.762C141.274 165.757 142.85 165.352 144.318 165.547C145.786 165.742 146.979 166.451 147.896 167.674L145.088 169.35C144.626 168.811 144.033 168.501 143.309 168.421C142.568 168.35 141.777 168.567 140.936 169.069C140.128 169.551 139.608 170.083 139.373 170.665C139.132 171.275 139.145 171.803 139.412 172.25C139.802 172.902 140.335 173.189 141.011 173.112C141.67 173.045 142.542 172.769 143.627 172.284C144.564 171.864 145.481 171.585 146.377 171.446C147.265 171.335 148.07 171.413 148.79 171.682C149.52 171.968 150.121 172.506 150.594 173.296C151.261 174.412 151.362 175.574 150.897 176.784C150.431 177.993 149.417 179.064 147.855 179.997C146.292 180.93 144.871 181.301 143.591 181.11C142.312 180.919 141.239 180.255 140.373 179.118L143 177.549C143.377 178.023 143.884 178.268 144.523 178.283C145.171 178.315 145.839 178.126 146.526 177.716C147.23 177.296 147.706 176.825 147.953 176.304C148.212 175.801 148.212 175.335 147.956 174.905C147.402 173.979 146.067 174.007 143.952 174.99C142.946 175.451 141.996 175.773 141.104 175.956C140.222 176.157 139.407 176.119 138.66 175.843C137.922 175.585 137.271 174.983 136.707 174.039C136.228 173.277 136.035 172.448 136.13 171.554C136.207 170.669 136.541 169.806 137.132 168.963C137.707 168.131 138.526 167.398 139.591 166.762Z" fill="#FFFCF2"/>
<path d="M133.632 189.009C134.287 188.763 134.917 188.762 135.521 189.005C136.114 189.274 136.526 189.718 136.758 190.335C136.99 190.953 136.968 191.549 136.692 192.122C136.397 192.703 135.922 193.116 135.267 193.362C134.593 193.615 133.963 193.616 133.378 193.365C132.773 193.122 132.355 192.691 132.123 192.074C131.891 191.456 131.919 190.847 132.207 190.248C132.483 189.675 132.958 189.261 133.632 189.009ZM133.188 170.848L134.158 173.432L129.776 175.075L132.72 182.911C132.952 183.529 133.367 183.725 133.967 183.5L137.056 182.342L138.027 184.926L134.403 186.284C133.242 186.72 132.298 186.764 131.569 186.418C130.829 186.097 130.241 185.357 129.805 184.196L126.799 176.192L122.417 177.835L121.446 175.251L133.188 170.848Z" fill="#FFFCF2"/>
<path d="M112.284 177.042C113.721 176.782 114.925 176.919 115.896 177.454C116.871 178.009 117.521 179.182 117.846 180.973L119.154 188.175L122.844 187.506L123.326 190.163L121.142 190.559C120.138 190.741 119.637 191.34 119.639 192.356L119.625 194.797L117.205 195.236L116.508 191.399L110.722 192.448L110.24 189.792L116.025 188.742L114.728 181.599C114.588 180.832 114.323 180.321 113.931 180.067C113.523 179.836 112.896 179.797 112.05 179.951L108.626 180.572L108.122 177.797L112.284 177.042Z" fill="#FFFCF2"/>
<path d="M100.294 195.16C100.994 195.16 101.584 195.38 102.064 195.82C102.524 196.28 102.754 196.84 102.754 197.5C102.754 198.16 102.524 198.71 102.064 199.15C101.584 199.59 100.994 199.81 100.294 199.81C99.574 199.81 98.984 199.59 98.524 199.15C98.044 198.71 97.804 198.16 97.804 197.5C97.804 196.84 98.044 196.28 98.524 195.82C98.984 195.38 99.574 195.16 100.294 195.16ZM106.264 178L106.264 180.76L101.584 180.76L101.584 189.13C101.584 189.79 101.904 190.12 102.544 190.12L105.844 190.12L105.844 192.88L101.974 192.88C100.734 192.88 99.834 192.59 99.274 192.01C98.694 191.45 98.404 190.55 98.404 189.31L98.404 180.76L93.724 180.76L93.724 178L106.264 178Z" fill="#FFFCF2"/>
<path d="M92.6599 177.938L90.003 192.579L87.2873 192.086L87.4181 189.854L87.2705 189.827C86.7483 190.464 86.0294 190.954 85.1136 191.296C84.1978 191.638 83.1988 191.71 82.1165 191.514C80.3257 191.189 79.0759 190.403 78.3671 189.157C77.6583 187.91 77.495 186.234 77.8771 184.128L79.4359 175.539L82.5648 176.106L81.0756 184.312C80.8542 185.532 80.9386 186.523 81.3288 187.285C81.7191 188.047 82.4652 188.528 83.5672 188.728C84.6495 188.925 85.6208 188.725 86.481 188.129C87.3216 187.529 87.8669 186.541 88.1168 185.163L89.531 177.371L92.6599 177.938Z" fill="#FFFCF2"/>
<path d="M71.4718 177.178C72.3332 177.501 73.0764 177.94 73.7012 178.495L74.7199 177.915C75.0501 177.719 75.2176 177.472 75.2224 177.175C75.2015 176.889 74.9944 176.673 74.6012 176.525L70.9214 175.145C69.2922 174.534 68.1114 173.696 67.3791 172.631C66.621 171.578 66.5057 170.349 67.0332 168.945C67.3637 168.065 67.8873 167.354 68.604 166.811C69.3089 166.242 70.2292 165.925 71.3647 165.86C72.4815 165.787 73.8264 166.046 75.3994 166.636C77.3845 167.38 78.8449 168.355 79.7809 169.56C80.7051 170.74 80.8894 172.07 80.3339 173.549C80.137 174.073 79.8324 174.514 79.4202 174.872C78.9963 175.204 78.5115 175.471 77.9659 175.672C78.3309 176.236 78.4429 176.877 78.3021 177.593C78.1356 178.321 77.6799 178.908 76.9352 179.355L75.1085 180.464C75.6371 181.73 75.6446 183.047 75.1313 184.414C74.7867 185.331 74.2549 186.093 73.5358 186.699C72.791 187.317 71.9187 187.705 70.919 187.864C69.9005 188.016 68.8013 187.871 67.6216 187.429C66.8538 187.141 66.1844 186.762 65.6133 186.291L60.3605 184.321L61.0989 182.355L63.5955 183.131L63.6904 182.879C63.5714 182.001 63.6772 181.122 64.0077 180.242C64.3523 179.325 64.897 178.557 65.6418 177.939C66.3679 177.315 67.2308 176.923 68.2306 176.763C69.2303 176.604 70.3108 176.743 71.4718 177.178ZM70.5752 179.565C69.7512 179.256 68.9856 179.247 68.2784 179.537C67.5525 179.82 67.0278 180.392 66.7043 181.253C66.3949 182.077 66.4203 182.834 66.7805 183.525C67.122 184.208 67.7048 184.704 68.5287 185.013C69.3714 185.33 70.1557 185.346 70.8816 185.063C71.5888 184.773 72.0971 184.216 72.4066 183.392C72.7301 182.531 72.7211 181.758 72.3796 181.075C72.0193 180.384 71.4179 179.881 70.5752 179.565ZM77.4405 172.72C77.7218 171.971 77.5734 171.285 76.9955 170.663C76.3987 170.033 75.5573 169.515 74.4712 169.107C73.3101 168.672 72.3187 168.524 71.4968 168.665C70.675 168.805 70.1305 169.231 69.8632 169.942C69.6382 170.542 69.7023 171.11 70.0556 171.649C70.4159 172.168 71.1766 172.646 72.3376 173.081L75.6241 174.314C76.5467 174.019 77.1522 173.488 77.4405 172.72Z" fill="#FFFCF2"/>
<path d="M55.0454 164.242L45.2509 175.444L43.2621 173.708L44.204 172.221L44.091 172.122C43.4871 172.418 42.8566 172.531 42.1997 172.462C41.5296 172.408 40.9158 172.138 40.3583 171.651C39.8159 171.177 39.4598 170.628 39.29 170.001C39.1202 169.375 39.1611 168.721 39.4128 168.038L39.3224 167.959C38.7316 168.24 38.0936 168.346 37.4085 168.279C36.7233 168.212 36.0719 167.909 35.4541 167.37C34.6255 166.646 34.2372 165.829 34.2892 164.919C34.3262 163.996 34.7726 163.045 35.6283 162.066L42.9545 153.687L45.2597 155.7L38.3482 163.604C37.9532 164.056 37.7418 164.495 37.7139 164.922C37.6577 165.351 37.833 165.743 38.2398 166.098C38.6466 166.453 39.1239 166.591 39.6715 166.512C40.2041 166.419 40.7205 166.087 41.2208 165.514L47.8361 157.949L50.1639 159.981L43.2524 167.885C42.8574 168.337 42.6385 168.77 42.5955 169.184C42.5393 169.612 42.7146 170.004 43.1214 170.359C43.5282 170.715 44.0054 170.852 44.5531 170.773C45.1008 170.694 45.6247 170.368 46.125 169.796L52.7403 162.23L55.0454 164.242Z" fill="#FFFCF2"/>
<path d="M47.2938 148.317L38.9619 150.43L39.5046 151.11L32.4411 164.142L30.289 161.445L36.0361 151.188L24.5813 154.294L22.504 151.691L45.1978 145.691L47.2938 148.317Z" fill="#FFFCF2"/>
<path d="M34.4511 128.865L14.0209 135.498L13.1674 132.873L15.2617 131.941L15.206 131.77C14.3785 131.618 13.6033 131.239 12.8803 130.633C12.1322 130.013 11.5849 129.171 11.2385 128.106C10.8798 127.003 10.8374 125.902 11.1112 124.804C11.366 123.712 11.9584 122.721 12.8886 121.83C13.7935 120.926 15.0639 120.209 16.6999 119.678C18.3168 119.153 19.7697 118.997 21.0585 119.209C22.3412 119.402 23.4225 119.882 24.3024 120.648C25.1633 121.419 25.7855 122.395 26.1689 123.574C26.5091 124.62 26.5843 125.563 26.3947 126.403C26.205 127.242 25.8995 127.92 25.4782 128.435L33.4677 125.841L34.4511 128.865ZM23.454 125.023C23.1077 123.958 22.4396 123.197 21.4499 122.741C20.4539 122.265 19.1951 122.274 17.6733 122.768C16.1515 123.262 15.1371 123.991 14.6303 124.955C14.1172 125.899 14.0339 126.904 14.3802 127.969C14.7328 129.053 15.407 129.833 16.4029 130.309C17.3736 130.772 18.6199 130.756 20.1417 130.262C21.6445 129.774 22.6619 129.055 23.194 128.104C23.7199 127.134 23.8065 126.107 23.454 125.023Z" fill="#FFFCF2"/>
<path d="M23.2843 110.682C23.4751 112.089 23.3286 113.39 22.8448 114.586C22.361 115.781 21.5874 116.774 20.5238 117.564C19.4405 118.356 18.1159 118.859 16.5502 119.071C14.9845 119.282 13.5839 119.149 12.3484 118.671C11.0931 118.195 10.0731 117.445 9.28841 116.421C8.50373 115.397 8.01467 114.171 7.82123 112.744C7.62778 111.317 7.77428 110.016 8.26072 108.84C8.74448 107.644 9.52938 106.66 10.6154 105.887C11.679 105.098 12.9936 104.597 14.5593 104.385C16.1251 104.173 17.5356 104.305 18.7909 104.781C20.0264 105.259 21.0365 106.011 21.8211 107.035C22.6031 108.039 23.0908 109.255 23.2843 110.682ZM20.2817 111.088C20.1796 110.335 19.9171 109.664 19.4942 109.075C19.0713 108.487 18.4875 108.051 17.7427 107.768C16.9755 107.469 16.0568 107.391 14.9865 107.536C13.8965 107.684 13.0315 108.002 12.3915 108.493C11.7489 108.963 11.3021 109.538 11.0512 110.218C10.7975 110.878 10.7217 111.585 10.8238 112.338C10.9259 113.091 11.1884 113.762 11.6113 114.35C12.0343 114.939 12.6194 115.384 13.3668 115.687C14.1115 115.97 15.0289 116.037 16.119 115.89C17.7442 115.67 18.8882 115.101 19.551 114.184C20.1912 113.25 20.4348 112.218 20.2817 111.088Z" fill="#FFFCF2"/>
<path d="M22.0027 103.495L19.2455 103.371L19.4085 99.7447L11.0469 99.3695C10.3875 99.3399 10.0435 99.6448 10.0148 100.284L9.90835 102.652L7.15112 102.528L7.31142 98.9616C7.34824 98.1424 7.61808 97.4838 8.12094 96.9859C8.60383 96.487 9.26485 96.2564 10.104 96.2941L10.4636 96.3102L10.4704 96.1604C9.36138 95.8904 8.54333 95.3832 8.01622 94.6388C7.47003 93.8736 7.22837 92.7917 7.29123 91.3931L7.39495 89.0854L10.7516 89.236L10.6061 92.4728C10.5531 93.6516 10.9218 94.579 11.7123 95.2551C12.5027 95.9313 13.4674 96.2949 14.6062 96.346L19.5512 96.5679L19.7587 91.9525L22.5159 92.0763L22.0027 103.495Z" fill="#FFFCF2"/>
<path d="M24.537 81.426C24.2119 82.8493 23.6123 83.9024 22.7384 84.5851C21.8449 85.2634 20.5109 85.4002 18.7365 84.9956L11.5997 83.3679L10.7646 87.0238L8.13221 86.4234L8.62658 84.2592C8.85373 83.2648 8.49986 82.5687 7.56497 82.1708L5.32526 81.1985L5.87308 78.8003L9.67545 79.6674L10.9849 73.9351L13.6173 74.5354L12.3079 80.2678L19.3861 81.8821C20.1466 82.0555 20.7207 82.0121 21.1084 81.7518C21.481 81.4675 21.7631 80.9062 21.9546 80.0678L22.7296 76.6752L25.479 77.3022L24.537 81.426Z" fill="#FFFCF2"/>
<path d="M31.8321 78.7203L29.2663 77.6245L30.222 75.3903C30.4973 74.7467 30.556 74.2281 30.3981 73.8345C30.2664 73.4303 29.8879 73.0946 29.2626 72.8276L16.2956 67.2896L14.809 70.765L12.326 69.7046L13.8126 66.2292L11.9089 65.4162C10.3823 64.7642 9.44922 63.9198 9.10958 62.8831C8.76993 61.8464 8.89901 60.6293 9.49681 59.2318L10.9245 55.8943L13.4903 56.9901L12.216 59.969C11.9407 60.6126 11.8728 61.1273 12.0123 61.5131C12.1518 61.8989 12.5435 62.2293 13.1872 62.5042L15.0633 63.3054L17.1044 58.5337L19.5875 59.5941L17.5463 64.3659L30.5408 69.9156C32.0674 70.5676 33.0006 71.4119 33.3402 72.4486C33.6798 73.4853 33.5468 74.7116 32.9412 76.1275L31.8321 78.7203Z" fill="#FFFCF2"/>
<path d="M35.3986 57.6883C34.6159 58.8731 33.6488 59.7565 32.4972 60.3386C31.3456 60.9208 30.1092 61.1595 28.7881 61.0548C27.4503 60.9391 26.1219 60.4463 24.803 59.5763C23.484 58.7064 22.5168 57.6851 21.9012 56.5124C21.2689 55.3287 20.9943 54.0934 21.0774 52.8066C21.1605 51.5197 21.5989 50.2755 22.3927 49.074C23.1864 47.8725 24.1536 46.989 25.2941 46.4236C26.4457 45.8415 27.6849 45.6166 29.0117 45.749C30.3328 45.8537 31.6529 46.341 32.9718 47.211C34.2907 48.0809 35.2663 49.1077 35.8986 50.2914C36.5142 51.4641 36.7804 52.6939 36.6973 53.9807C36.6253 55.2509 36.1924 56.4868 35.3986 57.6883ZM32.8693 56.02C33.2882 55.3858 33.5321 54.7082 33.6011 53.987C33.67 53.2658 33.517 52.5539 33.1421 51.8515C32.7616 51.1213 32.1205 50.4589 31.219 49.8643C30.3007 49.2586 29.4392 48.9299 28.6344 48.8783C27.8406 48.8099 27.1254 48.9491 26.4888 49.2959C25.8632 49.6261 25.341 50.1082 24.922 50.7423C24.5031 51.3764 24.2592 52.0541 24.1903 52.7753C24.1213 53.4965 24.2688 54.2167 24.6326 54.9358C25.0075 55.6383 25.6541 56.2924 26.5723 56.898C27.9414 57.801 29.1774 58.1251 30.2805 57.8704C31.378 57.5879 32.2409 56.9711 32.8693 56.02Z" fill="#FFFCF2"/>
<path d="M38.9824 51.6293L36.9867 49.7228L40.4296 46.1247L29.5185 35.7009C29.0413 35.245 28.5814 35.2482 28.139 35.7106L25.6501 38.3117L23.6544 36.4051L26.5373 33.3922C27.3393 32.5541 28.1719 32.1324 29.035 32.1272C29.8974 32.0937 30.7481 32.4776 31.5868 33.2789L42.6281 43.827L46.0918 40.2072L48.0875 42.1138L38.9824 51.6293Z" fill="#FFFCF2"/>
<path d="M43.9616 23.7355C43.3951 24.1468 42.7883 24.3154 42.1411 24.2415C41.4983 24.1397 40.9829 23.8219 40.5947 23.2881C40.2066 22.7543 40.0693 22.1744 40.1827 21.5483C40.3124 20.9104 40.6605 20.3859 41.227 19.9746C41.8096 19.5516 42.4164 19.383 43.0475 19.4686C43.6947 19.5425 44.2123 19.8463 44.6005 20.3801C44.9886 20.9139 45.1237 21.5078 45.0058 22.1619C44.8923 22.788 44.5442 23.3125 43.9616 23.7355ZM49.2221 41.1217L47.599 38.8894L51.3862 36.14L46.4639 29.3704C46.0757 28.8366 45.6227 28.7577 45.1048 29.1337L42.4343 31.0723L40.8112 28.8401L43.9429 26.5665C44.9464 25.8381 45.8452 25.5439 46.6395 25.684C47.4382 25.7962 48.2022 26.3537 48.9314 27.3566L53.9596 34.2718L57.7468 31.5224L59.37 33.7547L49.2221 41.1217Z" fill="#FFFCF2"/>
<path d="M66.4218 30.6209C65.1423 31.2366 63.8589 31.499 62.5718 31.4081C61.2847 31.3172 60.101 30.888 59.0207 30.1206C57.9317 29.3351 57.0442 28.2307 56.3582 26.8074C55.6722 25.3841 55.3657 24.0112 55.4388 22.6887C55.5032 21.3482 55.9011 20.1469 56.6325 19.0847C57.3638 18.0225 58.3783 17.1793 59.6759 16.5549C60.9735 15.9305 62.2568 15.6681 63.5259 15.7676C64.813 15.8585 65.9921 16.3011 67.0631 17.0952C68.1434 17.8627 69.0266 18.9581 69.7125 20.3814C70.3985 21.8047 70.7093 23.1866 70.6449 24.5271C70.5718 25.8496 70.1696 27.0419 69.4382 28.1041C68.7249 29.1575 67.7194 29.9965 66.4218 30.6209ZM65.1063 27.8914C65.7912 27.5618 66.3481 27.1051 66.7772 26.5214C67.2063 25.9376 67.4401 25.248 67.4786 24.4526C67.5264 23.6306 67.3159 22.7331 66.847 21.7602C66.3694 20.7693 65.7985 20.0453 65.1341 19.5881C64.4878 19.1223 63.8025 18.875 63.0781 18.8463C62.3718 18.8088 61.6763 18.9549 60.9914 19.2844C60.3066 19.6139 59.7496 20.0706 59.3205 20.6544C58.8914 21.2382 58.6486 21.9321 58.5921 22.7361C58.5536 23.5315 58.7731 24.4246 59.2507 25.4155C59.9627 26.8929 60.8575 27.8051 61.9351 28.1522C63.022 28.4726 64.0791 28.3857 65.1063 27.8914Z" fill="#FFFCF2"/>
<path d="M93.2748 21.0909C91.6414 21.2378 90.1332 20.9919 88.7503 20.3532C87.3675 19.7145 86.2383 18.7718 85.363 17.5252C84.4876 16.2786 83.9764 14.8386 83.8293 13.2052C83.6803 11.5519 83.926 10.0438 84.5664 8.681C85.2049 7.29825 86.1474 6.16929 87.3939 5.29413C88.6404 4.41896 90.0804 3.90793 91.7138 3.76104C93.3671 3.61236 94.8753 3.85826 96.2382 4.49876C97.6211 5.13747 98.7502 6.08012 99.6256 7.32673C100.499 8.55341 101.01 9.99341 101.159 11.6467C101.306 13.2801 101.061 14.7882 100.422 16.1709C99.7837 17.5537 98.8412 18.6826 97.5946 19.5578C96.3681 20.4312 94.9281 20.9422 93.2748 21.0909ZM93.1537 19.7463C94.548 19.6209 95.7543 19.1912 96.7726 18.457C97.8107 17.7211 98.5992 16.7766 99.1379 15.6238C99.6749 14.4509 99.8806 13.1674 99.755 11.773C99.6276 10.3587 99.1958 9.13248 98.4597 8.09424C97.7236 7.056 96.7791 6.26743 95.6261 5.72853C94.493 5.18785 93.2293 4.9802 91.8349 5.1056C90.4605 5.2292 89.2542 5.65898 88.216 6.39492C87.1778 7.13087 86.3894 8.07528 85.8506 9.22817C85.3119 10.3811 85.1062 11.6646 85.2336 13.0789C85.3592 14.4733 85.7909 15.6995 86.5288 16.7577C87.2649 17.7959 88.2095 18.5845 89.3625 19.1234C90.5155 19.6623 91.7792 19.8699 93.1537 19.7463ZM92.9488 17.8069C91.6142 17.9269 90.4466 17.56 89.446 16.7062C88.4453 15.8524 87.8679 14.569 87.7136 12.8559C87.6095 11.7006 87.7407 10.7048 88.1072 9.86863C88.4736 9.03244 88.9966 8.37295 89.676 7.89016C90.3554 7.40736 91.1234 7.12745 91.98 7.05042C93.2349 6.93757 94.2487 7.15764 95.0215 7.71066C95.8141 8.26187 96.3567 9.04643 96.6492 10.0643L95.1851 10.196C94.9285 9.57648 94.535 9.10985 94.0047 8.79608C93.4944 8.48053 92.8607 8.35679 92.1038 8.42486C91.2472 8.50189 90.5199 8.89863 89.9217 9.61508C89.3218 10.3116 89.0837 11.3471 89.2075 12.7215C89.3313 14.096 89.7515 15.0823 90.4681 15.6805C91.1846 16.2788 91.9712 16.5393 92.8277 16.4623C93.6444 16.3889 94.2748 16.1414 94.7188 15.72C95.1827 15.2967 95.4665 14.7692 95.5702 14.1373L97.0044 14.0084C96.8623 15.1055 96.4396 15.9869 95.7365 16.6525C95.0533 17.3164 94.1241 17.7012 92.9488 17.8069Z" fill="#FFFCF2"/>
</svg>
